<svg width="1920" height="1080" viewBox="0 0 1920 1080" fill="none" xmlns="http://www.w3.org/2000/svg">
<g clip-path="url(#clip0_15_2549)">
<rect width="1920" height="1080" fill="white"/>
<path d="M1271.48 1049.12C1279.59 1041.01 1288.87 1050.29 1296.98 1042.17C1305.1 1034.06 1295.82 1024.78 1303.93 1016.66C1312.05 1008.55 1321.33 1017.83 1329.44 1009.71C1337.55 1001.6 1328.28 992.323 1336.39 984.21C1344.5 976.096 1353.78 985.374 1361.89 977.262C1370.01 969.149 1360.73 959.871 1368.84 951.758C1376.95 943.647 1386.23 952.924 1394.34 944.812C1402.45 936.701 1393.18 927.422 1401.29 919.31C1409.4 911.199 1418.68 920.478 1426.79 912.366C1434.9 904.255 1425.62 894.976 1433.74 886.864C1441.85 878.753 1451.12 888.032 1459.24 879.92C1467.35 871.811 1458.07 862.531 1466.18 854.422C1474.29 846.31 1483.57 855.588 1491.68 847.476C1499.79 839.365 1490.51 830.085 1498.63 821.974C1506.74 813.862 1516.02 823.14 1524.13 815.028C1532.24 806.917 1522.96 797.637 1531.08 789.526C1539.19 781.414 1548.46 790.692 1556.58 782.58C1564.69 774.469 1555.41 765.191 1563.52 757.08C1571.63 748.968 1580.91 758.248 1589.02 750.136C1597.13 742.025 1587.85 732.747 1595.97 724.635C1604.08 716.524 1613.36 725.803 1621.47 717.692C1629.58 709.58 1620.3 700.301 1628.41 692.189C1636.52 684.078 1645.8 693.357 1653.91 685.246C1662.02 677.136 1652.74 667.857 1660.85 659.747C1668.97 651.636 1678.24 660.915 1686.36 652.803C1694.47 644.692 1685.19 635.414 1693.3 627.303C1701.41 619.193 1710.69 628.471 1718.8 620.361C1726.91 612.25 1717.63 602.972 1725.74 594.86C1733.85 586.751 1743.13 596.028 1751.24 587.919C1759.35 579.807 1750.08 570.528 1758.19 562.416C1766.3 554.307 1775.57 563.586 1783.68 555.474C1791.8 547.363 1782.52 538.085 1790.63 529.974C1798.74 521.864 1808.01 531.142 1816.12 523.034C1824.23 514.924 1814.96 505.647 1823.07 497.535C1831.18 489.426 1840.46 498.703 1848.56 490.593C1856.67 482.484 1847.4 473.206 1855.5 465.099C1863.61 456.989 1872.89 466.266 1881 458.157C1889.11 450.047 1879.83 440.77 1887.94 432.66C1896.05 424.552 1905.33 433.83 1913.44 425.722C1921.55 417.612 1912.27 408.335 1920.38 400.223H2444.27V1316.03H1271.48V1049.12Z" fill="#FAF4DD"/>
<path d="M667.113 29.9036C658.998 38.0188 649.721 28.7394 641.605 36.8547C633.49 44.9699 642.769 54.2474 634.654 62.3627C626.541 70.4761 617.261 61.1985 609.148 69.3119C601.035 77.4253 610.312 86.7029 602.201 94.8162C594.087 102.93 584.81 93.6521 576.696 101.764C568.583 109.877 577.862 119.154 569.749 127.268C561.637 135.379 552.358 126.102 544.247 134.213C536.135 142.325 545.413 151.604 537.301 159.716C529.189 167.827 519.912 158.548 511.801 166.659C503.687 174.771 512.967 184.05 504.853 192.162C496.742 200.273 487.464 190.994 479.353 199.106C471.243 207.215 480.52 216.495 472.411 224.604C464.299 232.716 455.02 223.438 446.908 231.55C438.797 239.661 448.074 248.941 439.963 257.052C431.851 265.164 422.574 255.886 414.46 263.998C406.349 272.109 415.626 281.389 407.513 289.5C399.401 297.612 390.124 288.334 382.011 296.446C373.899 304.557 383.178 313.835 375.067 321.946C366.955 330.058 357.678 320.778 349.566 328.89C341.455 337.001 350.734 346.279 342.623 354.39C334.511 362.502 325.234 353.223 317.122 361.334C309.011 369.446 318.288 378.725 310.177 386.836C302.065 394.948 292.788 385.669 284.676 393.78C276.567 401.89 285.844 411.169 277.734 419.279C269.623 427.39 260.345 418.111 252.234 426.222C244.122 434.334 253.402 443.612 245.29 451.723C237.18 459.833 227.901 450.555 219.791 458.665C211.68 466.776 220.959 476.054 212.846 484.165C204.736 492.275 195.459 482.998 187.347 491.107C179.236 499.219 188.513 508.498 180.402 516.61C172.292 524.719 163.014 515.44 154.905 523.551C146.793 531.663 156.073 540.94 147.961 549.052C139.852 557.162 130.574 547.884 122.464 555.992C114.355 564.102 123.632 573.379 115.523 581.491C107.413 589.6 98.1336 580.323 90.0239 588.432C81.9142 596.542 91.1936 605.82 83.0839 613.927C74.9743 622.037 65.6949 612.76 57.5852 620.869C49.4756 628.979 58.7549 638.256 50.6452 646.366C42.5374 654.474 33.2581 645.196 25.1503 653.304C17.0406 661.414 26.3182 670.691 18.2085 678.803H-505.68V-237.007H667.113V29.9036Z" fill="#FAF4DD"/>
<g opacity="0.5">
<path d="M281.726 201.212L250.726 143.703C236.709 151.258 224.569 160.811 214.174 171.804C217.216 143.942 229.149 116.154 246.816 98.7779L192.93 43.987C177.886 58.7829 165.463 77.0911 156.13 97.2849C144.866 77.0091 132.486 57.8767 119.049 40L66.8237 79.2529C88.2452 107.755 106.676 140.346 121.811 176.168C106.48 164.056 90.092 152.874 72.9186 142.855L40 199.29C122.598 247.474 159.031 310.781 167.536 340.591L230.245 325.972C230.139 324.917 230.047 323.851 229.962 322.779L230.362 322.664C230.187 322.054 230.003 321.439 229.82 320.826C226.916 277.271 241.589 222.849 281.726 201.212Z" fill="#C2DEDC"/>
<path d="M57.3066 169.625C169.557 222.91 195.043 334.179 195.043 334.179C170.744 137.354 219.228 70.7246 219.228 70.7246" stroke="#359FBC" stroke-width="1.91267" stroke-miterlimit="10" stroke-linecap="round" stroke-linejoin="round"/>
<path d="M94.4727 58.4714C151.503 155.266 195.043 334.178 195.043 334.178C197.345 203.96 265.434 170.981 265.434 170.981" stroke="#359FBC" stroke-width="0.956334" stroke-miterlimit="10" stroke-linecap="round" stroke-linejoin="round"/>
<path d="M215.257 556.123C194.72 556.123 178.011 539.407 178.011 518.862V183.92C178.011 163.374 194.72 146.66 215.261 146.66H217.147C258.193 146.66 309.562 145.357 350.839 144.311C363.477 143.992 375.412 143.687 385.712 143.457C385.997 143.45 386.277 143.448 386.56 143.448C407.099 143.448 423.808 160.162 423.808 180.71V517.712C423.808 538.257 407.094 554.971 386.551 554.971C386.176 554.971 385.798 554.967 385.42 554.954C372.385 554.565 357.473 554.375 339.829 554.375C306.17 554.375 269.181 555.094 239.46 555.67C231.095 555.832 223.188 555.985 215.92 556.112C215.699 556.121 215.479 556.123 215.257 556.123Z" fill="#0A525E"/>
<path d="M204.777 556.123C184.24 556.123 167.53 539.407 167.53 518.862V183.92C167.53 163.375 184.24 146.661 204.781 146.661H206.667C247.712 146.661 299.082 145.358 340.358 144.311C352.996 143.992 364.932 143.688 375.231 143.457C375.516 143.45 375.797 143.448 376.079 143.448C396.618 143.448 413.328 160.162 413.328 180.71V517.712C413.328 538.257 396.614 554.971 376.071 554.971C375.697 554.971 375.318 554.967 374.94 554.954C361.905 554.566 346.992 554.376 329.349 554.376C295.69 554.376 258.7 555.094 228.979 555.67C220.615 555.832 212.708 555.985 205.439 556.112C205.217 556.121 204.999 556.123 204.777 556.123Z" fill="#116A7B"/>
<path d="M176.043 183.92V518.862C176.043 534.935 189.219 547.886 205.29 547.604C251.649 546.79 323.974 544.918 375.194 546.445C391.405 546.928 404.812 533.932 404.812 517.712V180.71C404.812 164.581 391.545 151.61 375.421 151.97C331.21 152.961 258.836 155.226 204.806 155.174C188.923 155.159 176.043 168.037 176.043 183.92Z" fill="white"/>
<path d="M201.328 259.863H382.268" stroke="#C2DEDC" stroke-width="1.41908" stroke-miterlimit="10" stroke-linecap="round" stroke-linejoin="round"/>
<path d="M201.328 347.825H382.268" stroke="#C2DEDC" stroke-width="1.41908" stroke-miterlimit="10" stroke-linecap="round" stroke-linejoin="round"/>
<path d="M201.328 463.547H382.268" stroke="#C2DEDC" stroke-width="1.41908" stroke-miterlimit="10" stroke-linecap="round" stroke-linejoin="round"/>
<path d="M247.129 535.007H227.507C226.275 535.007 225.276 534.008 225.276 532.779C225.276 531.547 226.275 530.548 227.507 530.548H247.129C248.361 530.548 249.36 531.547 249.36 532.779C249.358 534.011 248.361 535.007 247.129 535.007Z" fill="#116A7B"/>
<path d="M303.009 535.007H283.387C282.155 535.007 281.156 534.008 281.156 532.779C281.156 531.547 282.155 530.548 283.387 530.548H303.009C304.241 530.548 305.238 531.547 305.238 532.779C305.238 534.011 304.239 535.007 303.009 535.007Z" fill="#116A7B"/>
<path d="M358.882 535.007H339.26C338.028 535.007 337.031 534.008 337.031 532.779C337.031 531.547 338.03 530.548 339.26 530.548H358.882C360.114 530.548 361.111 531.547 361.111 532.779C361.113 534.011 360.114 535.007 358.882 535.007Z" fill="#116A7B"/>
<path d="M312.502 159.678H268.354C260.346 159.678 260.333 172.123 268.354 172.123H312.502C320.508 172.123 320.524 159.678 312.502 159.678Z" fill="#116A7B"/>
<path d="M465.416 251H282.181C276.487 251 271.87 255.615 271.87 261.308V294.376C271.87 300.069 276.485 304.684 282.181 304.684H288.168C288.168 314.151 280.819 318.906 280.819 318.906C296.985 318.906 304.161 304.684 304.161 304.684H465.416C471.11 304.684 475.727 300.069 475.727 294.376V261.308C475.727 255.615 471.112 251 465.416 251Z" fill="#CCBC97"/>
<path d="M285.617 289.499H459.906" stroke="#AD9C79" stroke-width="1.65068" stroke-miterlimit="10"/>
<path d="M285.617 277.83H459.906" stroke="#AD9C79" stroke-width="1.65068" stroke-miterlimit="10"/>
<path d="M328.54 266.158H459.906" stroke="#AD9C79" stroke-width="1.65068" stroke-miterlimit="10"/>
<path d="M261.866 290.424V324.138C261.866 324.997 261.791 325.841 261.642 326.652C260.457 333.336 254.621 338.406 247.603 338.406H213.882C206.862 338.406 201.028 333.336 199.844 326.652C199.697 325.838 199.619 324.997 199.619 324.138V290.424C199.619 282.547 206.003 276.161 213.882 276.161H247.603C255.482 276.161 261.866 282.545 261.866 290.424Z" fill="#AD9C79"/>
<path d="M261.643 326.652C260.459 333.336 254.623 338.406 247.604 338.406H213.883C206.863 338.406 201.029 333.336 199.845 326.652C205.212 320.507 213.655 316.056 223.499 314.568C218.552 311.962 215.184 306.777 215.184 300.799C215.184 292.206 222.149 285.237 230.742 285.237C239.341 285.237 246.304 292.206 246.304 300.799C246.304 306.777 242.936 311.964 237.989 314.568C247.831 316.056 256.273 320.505 261.643 326.652Z" fill="#CCBC97"/>
<path d="M120.977 359.172H304.212C309.905 359.172 314.522 363.787 314.522 369.483V402.55C314.522 408.244 309.908 412.859 304.212 412.859H298.225C298.225 422.326 305.573 427.081 305.573 427.081C289.407 427.081 282.232 412.859 282.232 412.859H120.977C115.283 412.859 110.666 408.244 110.666 402.55V369.483C110.668 363.787 115.283 359.172 120.977 359.172Z" fill="#359FBC"/>
<path d="M300.777 397.672H126.488" stroke="#0A525E" stroke-width="1.65068" stroke-miterlimit="10"/>
<path d="M300.777 386H126.488" stroke="#0A525E" stroke-width="1.65068" stroke-miterlimit="10"/>
<path d="M257.852 374.33H126.488" stroke="#0A525E" stroke-width="1.65068" stroke-miterlimit="10"/>
<path d="M382.965 403.868V437.583C382.965 438.442 382.889 439.285 382.74 440.097C381.558 446.78 375.722 451.85 368.702 451.85H334.981C327.96 451.85 322.127 446.783 320.942 440.097C320.795 439.283 320.718 438.442 320.718 437.583V403.868C320.718 395.992 327.102 389.605 334.981 389.605H368.702C376.581 389.608 382.965 395.992 382.965 403.868Z" fill="#359FBC"/>
<path d="M382.745 440.098C381.562 446.782 375.726 451.852 368.706 451.852H334.985C327.964 451.852 322.131 446.784 320.946 440.098C326.314 433.951 334.756 429.503 344.601 428.014C339.654 425.408 336.286 420.223 336.286 414.245C336.286 405.652 343.25 398.683 351.843 398.683C360.443 398.683 367.405 405.652 367.405 414.245C367.405 420.223 364.037 425.408 359.09 428.014C368.935 429.503 377.375 433.951 382.745 440.098Z" fill="#187E96"/>
<path d="M239.141 214.577V235.983C239.141 236.529 239.094 237.064 238.999 237.58C238.248 241.824 234.542 245.043 230.086 245.043H208.678C204.221 245.043 200.516 241.824 199.765 237.58C199.673 237.064 199.623 236.529 199.623 235.983V214.577C199.623 209.576 203.677 205.522 208.678 205.522H230.086C235.087 205.522 239.141 209.576 239.141 214.577Z" fill="#FECC09"/>
<path d="M239 237.58C238.249 241.824 234.543 245.043 230.088 245.043H208.679C204.222 245.043 200.517 241.824 199.767 237.58C203.175 233.677 208.535 230.853 214.785 229.908C211.643 228.253 209.505 224.961 209.505 221.166C209.505 215.71 213.926 211.285 219.382 211.285C224.843 211.285 229.263 215.71 229.263 221.166C229.263 224.961 227.125 228.253 223.984 229.908C230.232 230.853 235.591 233.677 239 237.58Z" fill="#BE1F30"/>
<path d="M343.254 190.294H251.952C249.115 190.294 246.815 192.594 246.815 195.431V211.908C246.815 214.745 249.115 217.045 251.952 217.045H254.936C254.936 221.761 251.275 224.132 251.275 224.132C259.331 224.132 262.906 217.045 262.906 217.045H343.254C346.091 217.045 348.391 214.745 348.391 211.908V195.431C348.389 192.594 346.089 190.294 343.254 190.294Z" fill="#FECC09"/>
<path d="M253.664 209.479H340.508" stroke="#BE1F30" stroke-width="0.822419" stroke-miterlimit="10"/>
<path d="M253.664 203.662H340.508" stroke="#BE1F30" stroke-width="0.822419" stroke-miterlimit="10"/>
<path d="M275.053 197.848H340.508" stroke="#BE1F30" stroke-width="0.822419" stroke-miterlimit="10"/>
<path d="M239.141 484.939V506.345C239.141 506.891 239.094 507.426 238.999 507.942C238.248 512.186 234.542 515.405 230.086 515.405H208.678C204.221 515.405 200.516 512.186 199.765 507.942C199.673 507.426 199.623 506.891 199.623 506.345V484.939C199.623 479.938 203.677 475.884 208.678 475.884H230.086C235.087 475.884 239.141 479.938 239.141 484.939Z" fill="#FECC09"/>
<path d="M239 507.942C238.249 512.186 234.543 515.405 230.088 515.405H208.679C204.222 515.405 200.517 512.186 199.767 507.942C203.175 504.039 208.535 501.215 214.785 500.27C211.643 498.615 209.505 495.323 209.505 491.528C209.505 486.072 213.926 481.647 219.382 481.647C224.843 481.647 229.263 486.072 229.263 491.528C229.263 495.323 227.125 498.615 223.984 500.27C230.232 501.215 235.591 504.039 239 507.942Z" fill="#BE1F30"/>
<path d="M343.254 460.657H251.952C249.115 460.657 246.815 462.957 246.815 465.794V482.271C246.815 485.108 249.115 487.408 251.952 487.408H254.936C254.936 492.124 251.275 494.495 251.275 494.495C259.331 494.495 262.906 487.408 262.906 487.408H343.254C346.091 487.408 348.391 485.108 348.391 482.271V465.794C348.389 462.957 346.089 460.657 343.254 460.657Z" fill="#FECC09"/>
<path d="M253.664 479.842H340.508" stroke="#BE1F30" stroke-width="0.822419" stroke-miterlimit="10"/>
<path d="M253.664 474.025H340.508" stroke="#BE1F30" stroke-width="0.822419" stroke-miterlimit="10"/>
<path d="M275.053 468.211H340.508" stroke="#BE1F30" stroke-width="0.822419" stroke-miterlimit="10"/>
<path d="M164.114 446.898C146.524 438.206 125.722 438.616 108.555 448.171C104.624 450.359 108.145 456.397 112.082 454.205C126.969 445.921 145.288 445.373 160.586 452.932C162.278 453.767 164.368 453.388 165.367 451.679C166.269 450.136 165.812 447.737 164.114 446.898Z" fill="#116A7B"/>
<path d="M187.309 512.816L183.744 512.106C188.124 490.111 185.073 471.947 174.925 459.576C166.366 449.145 153.171 443.4 137.775 443.4C122.378 443.4 109.185 449.145 100.626 459.576C90.4773 471.945 87.4267 490.109 91.8063 512.106L88.2422 512.816C83.6425 489.718 86.9542 470.51 97.817 457.272C107.079 445.984 121.271 439.766 137.775 439.766C154.282 439.766 168.472 445.984 177.736 457.272C188.597 470.51 191.906 489.718 187.309 512.816Z" fill="#FECC09"/>
<path d="M165.085 482.724C160.241 482.172 155.756 484.325 155.206 488.046L146.876 544.393C146.362 547.864 149.963 551.795 154.792 552.345C159.635 552.898 164.121 550.744 164.671 547.023L173.001 490.676C173.514 487.205 169.913 483.274 165.085 482.724Z" fill="#CCBC97"/>
<path d="M185.18 507.858C183.081 507.548 181.046 509.058 180.736 511.157L178 529.657C177.691 531.75 179.208 533.793 181.299 534.102C183.398 534.412 185.432 532.902 185.743 530.803L188.479 512.303C188.789 510.21 187.273 508.167 185.18 507.858Z" fill="#FECC09"/>
<path d="M173.461 487.568L164.4 548.859C164.176 550.38 165.876 551.448 167.138 550.572C171.763 547.358 179.979 539.138 182.771 520.26C185.56 501.384 180.076 491.136 176.577 486.722C175.623 485.514 173.686 486.047 173.461 487.568Z" fill="#0A525E"/>
<path d="M160.06 482.558L149.913 551.195" stroke="#0A525E" stroke-width="0.908423" stroke-miterlimit="10" stroke-linecap="round"/>
<path d="M163.383 482.04L152.943 552.654" stroke="#0A525E" stroke-width="0.908423" stroke-miterlimit="10" stroke-linecap="round"/>
<path d="M168.445 495.145C165.565 498.2 163.623 501.876 163.079 505.563C162.536 509.259 163.302 513.112 165.17 516.773C165.595 517.604 167.271 517.589 167.396 516.752L170.574 495.807C170.704 494.963 169.088 494.461 168.445 495.145Z" fill="white"/>
<path d="M164.226 516.133C164.006 515.414 163.743 514.638 163.107 514.238C162.021 513.561 160.805 514.45 160.509 515.552C160.226 516.601 160.893 517.999 161.346 518.92C161.601 519.44 161.914 519.956 162.386 520.292C162.858 520.629 163.525 520.745 164.021 520.448C164.559 520.124 164.746 519.429 164.753 518.804C164.761 517.893 164.494 517.004 164.226 516.133Z" fill="white"/>
<path d="M174.558 533.969C174.108 533.822 173.603 533.958 173.206 534.217C172.809 534.476 172.5 534.847 172.198 535.211C170.518 537.233 168.781 539.371 168.261 541.947C168.177 542.363 168.131 542.816 168.323 543.194C168.634 543.8 169.476 543.969 170.114 543.731C170.753 543.492 171.227 542.955 171.648 542.417C172.464 541.375 173.18 540.256 173.788 539.082C174.321 538.051 175.322 536.955 175.493 535.79C175.601 535.056 175.262 534.2 174.558 533.969Z" fill="white"/>
<path d="M110.278 482.724C115.121 482.172 119.606 484.325 120.157 488.046L128.487 544.393C129 547.864 125.399 551.795 120.571 552.345C115.727 552.898 111.242 550.744 110.692 547.023L102.362 490.676C101.851 487.205 105.449 483.274 110.278 482.724Z" fill="#CCBC97"/>
<path d="M90.1825 507.858C92.2817 507.548 94.3162 509.058 94.6268 511.157L97.3625 529.657C97.671 531.75 96.1543 533.793 94.0637 534.102C91.9645 534.412 89.93 532.902 89.6194 530.803L86.8837 512.303C86.5752 510.21 88.0897 508.167 90.1825 507.858Z" fill="#FECC09"/>
<path d="M101.903 487.568L110.964 548.859C111.188 550.38 109.488 551.448 108.226 550.572C103.601 547.358 95.3851 539.138 92.5933 520.26C89.8037 501.384 95.2901 491.136 98.7874 486.722C99.741 485.514 101.678 486.047 101.903 487.568Z" fill="#0A525E"/>
<path d="M115.305 482.558L125.451 551.195" stroke="#0A525E" stroke-width="0.908423" stroke-miterlimit="10" stroke-linecap="round"/>
<path d="M111.982 482.04L122.42 552.654" stroke="#0A525E" stroke-width="0.908423" stroke-miterlimit="10" stroke-linecap="round"/>
<path d="M106.918 495.145C109.798 498.2 111.74 501.876 112.283 505.563C112.827 509.259 112.061 513.112 110.193 516.773C109.77 517.604 108.094 517.589 107.966 516.752L104.788 495.807C104.661 494.963 106.275 494.461 106.918 495.145Z" fill="white"/>
<path d="M111.137 516.133C111.357 515.414 111.62 514.638 112.257 514.238C113.342 513.561 114.559 514.45 114.854 515.552C115.137 516.601 114.468 517.999 114.017 518.92C113.763 519.44 113.45 519.956 112.977 520.292C112.505 520.629 111.838 520.745 111.342 520.448C110.805 520.124 110.617 519.429 110.611 518.804C110.602 517.893 110.872 517.004 111.137 516.133Z" fill="white"/>
<path d="M100.807 533.969C101.258 533.822 101.763 533.958 102.16 534.217C102.557 534.476 102.865 534.847 103.17 535.211C104.85 537.233 106.587 539.371 107.107 541.947C107.191 542.363 107.237 542.816 107.044 543.194C106.734 543.8 105.892 543.969 105.254 543.731C104.615 543.492 104.141 542.955 103.72 542.417C102.904 541.375 102.188 540.256 101.58 539.082C101.045 538.051 100.046 536.955 99.8752 535.79C99.7674 535.056 100.104 534.2 100.807 533.969Z" fill="white"/>
<path d="M459 349.794C444.322 350.141 432.607 362.139 432.607 376.818V421.672H485.398L486.663 377.593C487.105 362.113 474.479 349.427 459 349.794Z" fill="#187E96"/>
<path d="M435.337 405.357L455.882 418.101" stroke="#116A7B" stroke-width="0.551551" stroke-miterlimit="10"/>
<path d="M435.726 391.836L469.272 417.19" stroke="#116A7B" stroke-width="0.551551" stroke-miterlimit="10"/>
<path d="M437.546 376.363L479.414 411.078" stroke="#116A7B" stroke-width="0.551551" stroke-miterlimit="10"/>
<path d="M442.358 362.45L480.845 395.347" stroke="#116A7B" stroke-width="0.551551" stroke-miterlimit="10"/>
<path d="M454.58 354.778L482.795 378.834" stroke="#116A7B" stroke-width="0.551551" stroke-miterlimit="10"/>
<path d="M461.6 418.102L481.884 392.095" stroke="#116A7B" stroke-width="0.551551" stroke-miterlimit="10"/>
<path d="M480.194 369.86L445.996 417.449" stroke="#116A7B" stroke-width="0.551551" stroke-miterlimit="10"/>
<path d="M434.815 411.469L468.752 358.158" stroke="#116A7B" stroke-width="0.551551" stroke-miterlimit="10"/>
<path d="M459.001 353.347L436.246 382.603" stroke="#116A7B" stroke-width="0.551551" stroke-miterlimit="10"/>
<path d="M430.136 421.672V447.048C430.136 452.709 434.725 457.298 440.386 457.298H477.356C483.017 457.298 487.606 452.709 487.606 447.048V421.672H430.136Z" fill="#FECC09"/>
<path d="M488.259 420.289L428.62 419.877C426.327 419.862 426.322 423.426 428.62 423.441L488.259 423.853C490.552 423.871 490.557 420.307 488.259 420.289Z" fill="#BE1F30"/>
<path d="M478.503 429.271C474.242 429.271 474.235 435.892 478.503 435.892C482.764 435.892 482.77 429.271 478.503 429.271Z" fill="#0A525E"/>
<path d="M467.712 429.271C463.451 429.271 463.444 435.892 467.712 435.892C471.973 435.892 471.979 429.271 467.712 429.271Z" fill="#0A525E"/>
<path d="M451.493 388.092C451.29 382.105 448.154 375.052 443.135 372.258C441.068 371.108 438.531 372.664 438.566 375.028L438.969 402.624C439.004 405.03 441.677 406.519 443.698 405.211C448.669 401.996 451.696 394.061 451.493 388.092Z" fill="white"/>
<path d="M453.061 401.621C450.69 399.856 444.677 404.643 447.135 407.431C450.026 410.71 454.058 406.926 453.877 403.496C453.842 402.792 453.626 402.044 453.061 401.621Z" fill="white"/>
<path d="M471.972 364.612C466.766 366.387 471.624 375.846 473.944 378.061C474.819 378.898 476.01 379.651 477.178 379.321C477.905 379.114 478.468 378.506 478.774 377.815C479.08 377.125 479.158 376.355 479.175 375.6C479.251 372.394 477.096 362.864 471.972 364.612Z" fill="white"/>
<path d="M457.243 439.486C457.243 445.214 452.6 449.857 446.872 449.857C441.144 449.857 436.501 445.214 436.501 439.486C436.501 433.758 441.144 429.115 446.872 429.115C452.6 429.115 457.243 433.758 457.243 439.486Z" fill="#116A7B"/>
<path d="M450.465 439.486C450.465 441.471 448.856 443.081 446.871 443.081C444.886 443.081 443.276 441.471 443.276 439.486C443.276 437.502 444.886 435.892 446.871 435.892C448.856 435.892 450.465 437.502 450.465 439.486Z" fill="#0A525E"/>
<path d="M471.308 465.096H450.818C447.798 465.096 445.343 462.638 445.343 459.618V439.487H448.398V459.618C448.398 460.953 449.483 462.038 450.818 462.038H471.308C472.643 462.038 473.728 460.953 473.728 459.618V457.301H476.783V459.618C476.786 462.638 474.328 465.096 471.308 465.096Z" fill="#0A525E"/>
<path d="M431.444 485.194H488.149C489.463 485.194 490.326 483.822 489.756 482.637L487.521 477.988C486.619 476.113 484.723 474.92 482.641 474.92H436.702C434.532 474.92 432.573 476.215 431.72 478.212L429.802 482.711C429.304 483.889 430.167 485.194 431.444 485.194Z" fill="#0A525E"/>
<path d="M461.897 464.26H457.835V477.392H461.897V464.26Z" fill="#0A525E"/>
<path d="M516.568 489.308H458.745C446.728 491.517 445.49 514.177 458.638 521.217H514.311C514.311 521.217 510.475 502.216 516.568 489.308Z" fill="white"/>
<path d="M454.766 491.287C459.681 506.43 454.766 518.887 454.766 518.887C445.44 503.267 454.445 491.865 454.445 491.865" fill="#0A525E"/>
<path d="M458.376 484.89H384.565C370.801 498.177 375.087 518.089 384.565 525.638H461.284C446.618 514.773 449.591 497.97 458.376 484.89Z" fill="#187E96"/>
<path d="M447.093 522.717H388.113L387.987 522.486C383.537 514.352 381.468 508.389 381.278 503.148C381.099 498.217 382.62 493.738 386.21 488.624L386.341 488.437H444.237L443.68 489.151C437.913 496.551 438.522 505.155 439.4 509.625C440.645 515.97 443.553 520.68 445.659 521.89L447.093 522.717ZM388.637 521.832H444.148C442.049 519.83 439.631 515.409 438.53 509.796C437.652 505.319 437.037 496.827 442.446 489.321H386.799C380.087 498.995 380.538 506.959 388.637 521.832Z" fill="#359FBC"/>
<path d="M520.855 525.638H457.641L457.201 525.435C451.192 522.671 447.041 515.306 446.623 506.669C446.168 497.28 450.051 489.25 457.011 485.19L457.527 484.89H520.853V489.308H458.744C453.544 492.618 450.672 498.978 451.035 506.456C451.365 513.249 454.329 518.978 458.634 521.219H520.853V525.638H520.855Z" fill="#359FBC"/>
<path d="M462.408 496.1L509.743 496.21" stroke="#CCBC97" stroke-width="0.638257" stroke-miterlimit="10"/>
<path d="M457.695 502.613H487.38" stroke="#CCBC97" stroke-width="0.638257" stroke-miterlimit="10"/>
<path d="M490.689 502.724H508.04" stroke="#CCBC97" stroke-width="0.638257" stroke-miterlimit="10"/>
<path d="M498.814 509.679L460.306 509.569" stroke="#CCBC97" stroke-width="0.638257" stroke-miterlimit="10"/>
<path d="M465.417 514.318H492.295" stroke="#CCBC97" stroke-width="0.638257" stroke-miterlimit="10"/>
<path d="M496.205 514.318L507.335 514.428" stroke="#CCBC97" stroke-width="0.638257" stroke-miterlimit="10"/>
<path d="M415.533 491.865H389.909C389.21 491.865 388.88 492.739 389.411 493.194C393.195 496.439 397.874 498.542 402.871 498.546C407.868 498.549 412.303 496.436 416.034 493.192C416.562 492.732 416.232 491.865 415.533 491.865Z" fill="white"/>
<path d="M389.874 502.617C390.465 502.997 391.142 503.288 391.843 503.265C392.545 503.241 393.265 502.844 393.511 502.188C393.826 501.349 393.304 500.425 392.674 499.787C391.671 498.771 390.331 498.091 388.918 497.882C385.11 497.319 388.583 501.787 389.874 502.617Z" fill="white"/>
<path d="M419.787 521.709C417.575 521.726 415.26 521.722 413.297 520.701C412.736 520.41 412.158 519.931 412.179 519.299C412.194 518.833 412.555 518.436 412.975 518.237C413.396 518.039 413.873 518 414.337 517.968C419.646 517.605 424.975 517.666 430.298 517.728C431.942 517.748 433.605 517.767 435.204 518.153C436.088 518.367 437.096 518.867 437.173 519.776C437.236 520.507 436.61 521.154 435.907 521.37C435.023 521.642 433.816 521.556 432.88 521.603C431.422 521.676 429.944 521.627 428.483 521.64C425.586 521.661 422.686 521.685 419.787 521.709Z" fill="white"/>
<path d="M478.086 527.918H523.65C532.854 544.091 523.65 554.947 523.65 554.947H476.844C479.575 536.671 478.086 527.918 478.086 527.918Z" fill="white"/>
<path d="M524.79 531.01C519.245 545.034 524.099 552.643 524.099 552.643C530.731 539.998 524.79 531.01 524.79 531.01Z" fill="#0A525E"/>
<path d="M429.251 527.918C432.084 540.313 429.251 554.947 429.251 554.947H478.089C482.234 543.972 478.089 527.918 478.089 527.918H429.251Z" fill="#ECE5C7"/>
<path d="M524.567 556.834H478.089V554.484H523.344C524.688 551.447 530.237 537.559 523.521 529.093H478.089V526.744H524.403L524.705 527.1C528.502 531.566 529.719 538.053 528.224 545.863C527.119 551.63 524.955 556.051 524.865 556.236L524.567 556.834Z" fill="#FECC09"/>
<path d="M478.086 526.744H428.187V529.093H478.086V526.744Z" fill="#BE1F30"/>
<path d="M478.086 554.486H428.187V556.835H478.086V554.486Z" fill="#BE1F30"/>
<path d="M482.823 533.942C483.19 533.942 483.557 533.942 483.924 533.942L520.188 534.178" stroke="#CCBC97" stroke-width="0.500603" stroke-miterlimit="10"/>
<path d="M521.055 539.055H506.738" stroke="#CCBC97" stroke-width="0.500603" stroke-miterlimit="10"/>
<path d="M504.143 539.055H487.307" stroke="#CCBC97" stroke-width="0.500603" stroke-miterlimit="10"/>
<path d="M484.315 545.112H508.787" stroke="#CCBC97" stroke-width="0.500603" stroke-miterlimit="10"/>
<path d="M511.615 545.034H514.683" stroke="#CCBC97" stroke-width="0.500603" stroke-miterlimit="10"/>
<path d="M435.305 549.046H471.729" stroke="#CCBC97" stroke-width="0.500603" stroke-miterlimit="10"/>
<path d="M472.754 543.54H461.817" stroke="#CCBC97" stroke-width="0.500603" stroke-miterlimit="10"/>
<path d="M457.964 543.54H439.949" stroke="#CCBC97" stroke-width="0.500603" stroke-miterlimit="10"/>
<path d="M435.778 539.055H458.671" stroke="#CCBC97" stroke-width="0.500603" stroke-miterlimit="10"/>
<path d="M462.288 538.898H470.392" stroke="#CCBC97" stroke-width="0.500603" stroke-miterlimit="10"/>
<path d="M471.18 534.177H443.884" stroke="#CCBC97" stroke-width="0.500603" stroke-miterlimit="10"/>
<path d="M487.229 550.07H500.13" stroke="#CCBC97" stroke-width="0.500603" stroke-miterlimit="10"/>
<path d="M505.793 549.675H514.214" stroke="#CCBC97" stroke-width="0.500603" stroke-miterlimit="10"/>
<path d="M431.159 148.523L342.524 102.142L323.553 128.67C322.787 129.74 322.692 131.16 323.333 132.31C333.922 151.272 389.093 182.404 421.228 179.511C422.693 179.379 423.912 178.333 424.259 176.905L431.159 148.523Z" fill="#116A7B"/>
<path d="M293.839 68.9709L292.998 73.603L382.96 139.222L492.039 171.306L495.353 167.224L293.839 68.9709Z" fill="#187E96"/>
<path d="M293.838 68.9709L399.208 102.261L495.351 167.224L384.292 136.275L293.838 68.9709Z" fill="#359FBC"/>
<path d="M396.403 119.096C396.088 119.795 393.87 119.473 391.452 118.379C389.033 117.285 387.329 115.833 387.644 115.134C387.959 114.435 390.177 114.757 392.595 115.851C395.014 116.945 396.718 118.396 396.403 119.096Z" fill="#0A525E"/>
<path d="M392.024 117.115L444.149 151.915C439.741 163.198 442.09 173.364 442.09 173.364" stroke="#ECE5C7" stroke-width="1.34289" stroke-miterlimit="10" stroke-linecap="round" stroke-linejoin="round"/>
<path d="M440.141 175.114L443.904 174.648C447.28 184.594 455.541 190.568 455.541 190.568C450.791 196.294 437.024 193.619 437.024 193.619C436.625 183.405 440.141 175.114 440.141 175.114Z" fill="#ECE5C7"/>
<path d="M445.195 175.547C444.347 177.424 442.138 178.257 440.263 177.407C438.386 176.559 437.553 174.35 438.401 172.475C439.249 170.598 441.458 169.765 443.333 170.615C445.21 171.463 446.045 173.67 445.195 175.547Z" fill="#CCBC97"/>
<path d="M352.385 151.423C345.033 147.337 338.271 142.191 332.375 136.196C331.51 135.315 332.157 133.818 333.393 133.84C338.187 133.919 343.13 134.791 346.907 137.529C350.664 140.249 352.881 145.11 354.396 149.792C354.782 150.991 353.488 152.038 352.385 151.423Z" fill="white"/>
<path d="M355.65 144.922C356.079 146.281 356.774 147.589 357.839 148.534C358.308 148.95 358.955 149.306 359.542 149.08C360.135 148.849 360.368 148.137 360.454 147.505C360.834 144.702 359.69 141.74 357.527 139.921C357.043 139.516 356.452 139.147 355.824 139.224C353.852 139.468 355.322 143.884 355.65 144.922Z" fill="white"/>
<path d="M423.451 164.639C423.341 165.118 423.224 165.608 422.948 166.013C422.672 166.419 422.195 166.727 421.71 166.661C421.121 166.579 420.739 166.013 420.467 165.487C419.604 163.802 419.093 161.938 418.981 160.048C418.909 158.868 418.998 157.649 419.479 156.568C419.958 155.487 420.875 154.555 422.025 154.272C423.887 153.815 425.505 155.094 425.216 156.948C424.817 159.526 424.038 162.098 423.451 164.639Z" fill="white"/>
<path d="M689.866 533.252H670.125V513.511C670.125 507.975 665.258 502.672 659.542 502.927C653.808 503.184 648.96 507.576 648.96 513.511V533.252H629.219C623.683 533.252 618.38 538.119 618.635 543.834C618.892 549.569 623.286 554.417 629.219 554.417H648.96V574.158C648.96 579.694 653.827 584.997 659.542 584.74C665.277 584.483 670.125 580.091 670.125 574.158V554.417H689.866C695.402 554.417 700.705 549.55 700.448 543.834C700.191 538.102 695.799 533.252 689.866 533.252Z" stroke="#C2DEDC" stroke-width="1.15662" stroke-miterlimit="10"/>
<path d="M477.725 73.1057H468.202V63.5827C468.202 60.9117 465.852 58.353 463.095 58.4759C460.329 58.5989 457.989 60.7197 457.989 63.5827V73.1057H448.465C445.795 73.1057 443.236 75.4552 443.359 78.2124C443.482 80.9783 445.603 83.3191 448.465 83.3191H457.989V92.8422C457.989 95.5131 460.338 98.0718 463.095 97.9489C465.861 97.8237 468.202 95.7051 468.202 92.8422V83.3191H477.725C480.396 83.3191 482.955 80.9696 482.832 78.2124C482.709 75.4444 480.588 73.1057 477.725 73.1057Z" fill="#C2DEDC"/>
<path d="M554.56 115.032H545.037V105.509C545.037 102.838 542.687 100.28 539.93 100.403C537.164 100.526 534.823 102.646 534.823 105.509V115.032H525.3C522.629 115.032 520.071 117.38 520.194 120.139C520.317 122.905 522.437 125.246 525.3 125.246H534.823V134.769C534.823 137.44 537.173 139.999 539.93 139.876C542.696 139.753 545.037 137.632 545.037 134.769V125.246H554.56C557.231 125.246 559.79 122.896 559.667 120.139C559.541 117.371 557.421 115.032 554.56 115.032Z" fill="#C2DEDC"/>
<path d="M222.243 607.021C217.563 607.021 215.171 604.491 213.061 602.256C211.059 600.137 209.33 598.31 205.779 598.31C202.228 598.31 200.5 600.139 198.498 602.256C196.388 604.489 193.995 607.021 189.318 607.021C184.64 607.021 182.248 604.489 180.138 602.256C178.138 600.137 176.41 598.31 172.856 598.31C169.305 598.31 167.579 600.139 165.579 602.256C163.469 604.489 161.079 607.021 156.401 607.021C151.724 607.021 149.331 604.489 147.221 602.256C145.222 600.137 143.493 598.31 139.942 598.31C139.219 598.31 138.635 597.725 138.635 597.002C138.635 596.279 139.219 595.695 139.942 595.695C144.62 595.695 147.012 598.228 149.122 600.461C151.122 602.579 152.85 604.407 156.401 604.407C159.953 604.407 161.679 602.577 163.679 600.461C165.789 598.228 168.179 595.695 172.856 595.695C177.534 595.695 179.926 598.228 182.036 600.461C184.036 602.579 185.765 604.407 189.318 604.407C192.869 604.407 194.597 602.577 196.599 600.461C198.709 598.228 201.102 595.695 205.779 595.695C210.459 595.695 212.851 598.225 214.961 600.461C216.964 602.579 218.692 604.407 222.243 604.407C225.796 604.407 227.524 602.577 229.524 600.461C231.634 598.228 234.027 595.695 238.706 595.695C239.429 595.695 240.014 596.279 240.014 597.002C240.014 597.725 239.429 598.31 238.706 598.31C235.153 598.31 233.425 600.139 231.425 602.256C229.313 604.489 226.92 607.021 222.243 607.021Z" fill="#359FBC"/>
<path d="M222.243 620.778C217.563 620.778 215.171 618.247 213.061 616.012C211.059 613.893 209.33 612.066 205.779 612.066C202.228 612.066 200.5 613.896 198.498 616.012C196.388 618.245 193.995 620.778 189.318 620.778C184.64 620.778 182.248 618.245 180.138 616.012C178.138 613.893 176.41 612.066 172.856 612.066C169.305 612.066 167.579 613.896 165.579 616.012C163.469 618.245 161.079 620.778 156.401 620.778C151.724 620.778 149.331 618.245 147.221 616.012C145.222 613.893 143.493 612.066 139.942 612.066C139.219 612.066 138.635 611.481 138.635 610.759C138.635 610.036 139.219 609.451 139.942 609.451C144.62 609.451 147.012 611.984 149.122 614.217C151.122 616.336 152.85 618.163 156.401 618.163C159.953 618.163 161.679 616.334 163.679 614.217C165.789 611.984 168.179 609.451 172.856 609.451C177.534 609.451 179.926 611.984 182.036 614.217C184.036 616.336 185.765 618.163 189.318 618.163C192.869 618.163 194.597 616.334 196.599 614.217C198.709 611.984 201.102 609.451 205.779 609.451C210.459 609.451 212.851 611.982 214.961 614.217C216.964 616.336 218.692 618.163 222.243 618.163C225.796 618.163 227.524 616.334 229.524 614.217C231.634 611.984 234.027 609.451 238.706 609.451C239.429 609.451 240.014 610.036 240.014 610.759C240.014 611.481 239.429 612.066 238.706 612.066C235.153 612.066 233.425 613.896 231.425 616.012C229.313 618.247 226.92 620.778 222.243 620.778Z" fill="#359FBC"/>
</g>
<g opacity="0.5">
<path d="M1586.67 779.285C1599.93 814.656 1624.95 847.798 1654.18 872.585C1659.8 877.348 1668.14 877.166 1673.49 872.102C1696.2 850.603 1713.72 823.74 1724.75 794.455C1717.72 795.6 1709.71 791.585 1707.1 784.917C1703.75 776.363 1707.27 767.485 1715.43 763.409C1721.8 760.226 1727.93 756.594 1734.2 753.207C1734.69 752.939 1735.21 752.714 1735.73 752.518C1737.37 741.7 1738.15 730.753 1737.99 719.796C1737.13 662.414 1710.7 605.967 1667.53 568.23C1662.63 563.944 1655.48 563.408 1650.01 566.947C1626.32 582.278 1606.83 603.447 1593.66 628.22C1595.48 629.26 1597.3 630.31 1599.11 631.368C1599.32 631.49 1602.32 633.138 1601.48 632.71C1602.46 633.231 1603.45 633.747 1604.46 634.243C1612.08 638.008 1617.34 647.008 1613.51 655.457C1610.09 662.998 1600.49 668.554 1592.3 664.513C1588.55 662.664 1584.93 660.591 1581.32 658.493C1569.78 697.826 1572.27 740.886 1586.67 779.285ZM1676.97 650.366C1678.35 641.633 1685.92 634.972 1695.01 636.003C1703.48 636.963 1710.76 645.337 1709.37 654.043C1707.98 662.776 1700.41 669.437 1691.33 668.406C1682.86 667.444 1675.58 659.072 1676.97 650.366ZM1604.08 788.289C1605.47 779.556 1613.04 772.895 1622.12 773.926C1630.6 774.886 1637.87 783.26 1636.49 791.966C1635.1 800.699 1627.53 807.36 1618.45 806.329C1609.97 805.369 1602.7 796.995 1604.08 788.289Z" fill="#ECE5C7"/>
<path d="M1663.05 878.639C1671.97 714.527 1662.48 562.86 1662.48 562.86" stroke="#CCBC97" stroke-width="1.71355" stroke-miterlimit="10" stroke-linecap="round"/>
<path d="M1664.93 839.276C1681.2 824.489 1702.09 814.858 1723.9 812.086" stroke="#CCBC97" stroke-width="0.856774" stroke-miterlimit="10" stroke-linecap="round"/>
<path d="M1666.78 753.647C1642.54 726.563 1609.65 708.808 1573.7 703.397" stroke="#CCBC97" stroke-width="0.856774" stroke-miterlimit="10" stroke-linecap="round"/>
<path d="M1665.4 640.232C1675.82 625.848 1691.51 615.378 1708.79 611.278" stroke="#CCBC97" stroke-width="0.856774" stroke-miterlimit="10" stroke-linecap="round"/>
<path d="M1649.5 731.288C1643.48 777.546 1651.56 828.181 1669.08 872.144C1672.45 880.595 1681.65 885.225 1690.42 882.801C1727.64 872.513 1762.31 853.373 1791.3 827.819C1782.97 824.996 1776.56 815.979 1777.58 807.197C1778.88 795.927 1787.86 788.28 1799.12 788.563C1807.91 788.785 1816.7 788.376 1825.49 788.313C1826.19 788.308 1826.88 788.36 1827.56 788.451C1835.62 777.607 1842.82 766.118 1848.98 754.077C1881.29 691.002 1885.16 614.13 1859.94 547.97C1857.08 540.456 1849.6 535.733 1841.59 536.425C1806.86 539.416 1773.34 551.214 1744.63 570.598C1746.02 572.788 1747.4 574.984 1748.76 577.191C1748.91 577.441 1751.23 580.979 1750.56 580.023C1751.33 581.164 1752.11 582.302 1752.92 583.421C1759.06 591.947 1759.58 604.808 1750.51 611.803C1742.41 618.045 1728.72 618.541 1722.13 609.391C1719.11 605.208 1716.36 600.847 1713.65 596.467C1678.27 632.666 1656.04 681.069 1649.5 731.288ZM1822.66 643.005C1829.23 634.285 1841.34 631.404 1850.65 637.789C1859.34 643.746 1862.42 657.091 1855.87 665.782C1849.29 674.502 1837.18 677.384 1827.88 670.999C1819.19 665.041 1816.11 651.697 1822.66 643.005ZM1663.28 751.196C1669.85 742.476 1681.96 739.594 1691.27 745.979C1699.96 751.936 1703.04 765.281 1696.49 773.973C1689.91 782.692 1677.8 785.574 1668.49 779.189C1659.81 773.232 1656.73 759.887 1663.28 751.196Z" fill="#C2DEDC"/>
<path d="M1675.25 883.882C1780.04 710.08 1857.56 539.181 1857.56 539.181" stroke="#359FBC" stroke-width="2.11599" stroke-miterlimit="10" stroke-linecap="round"/>
<path d="M1700.1 842.043C1726.41 835.343 1754.76 836.939 1780.15 846.549" stroke="#359FBC" stroke-width="1.058" stroke-miterlimit="10" stroke-linecap="round"/>
<path d="M1751.72 749.734C1740.97 706.152 1715.39 667.74 1679.33 641.018" stroke="#359FBC" stroke-width="1.058" stroke-miterlimit="10" stroke-linecap="round"/>
<path d="M1815.91 625.252C1835.6 615.599 1858.78 613.269 1880 618.808" stroke="#359FBC" stroke-width="1.058" stroke-miterlimit="10" stroke-linecap="round"/>
<path d="M1713.83 856.251H1580.55C1552.85 861.344 1550 913.571 1580.3 929.802H1708.63C1708.63 929.802 1699.78 886.005 1713.83 856.251Z" fill="white"/>
<path d="M1571.38 860.809C1582.7 895.713 1571.38 924.427 1571.38 924.427C1549.88 888.424 1570.64 862.141 1570.64 862.141" fill="#0A525E"/>
<path d="M1579.7 846.066H1409.57C1377.84 876.696 1387.72 922.587 1409.57 939.989H1586.4C1552.6 914.947 1559.45 876.217 1579.7 846.066Z" fill="#187E96"/>
<path d="M1553.7 933.256H1417.75L1417.46 932.726C1407.2 913.978 1402.43 900.231 1401.99 888.153C1401.58 876.785 1405.08 866.462 1413.36 854.676L1413.66 854.244H1547.11L1545.83 855.889C1532.54 872.943 1533.94 892.778 1535.96 903.082C1538.83 917.71 1545.54 928.566 1550.39 931.354L1553.7 933.256ZM1418.96 931.218H1546.91C1542.07 926.605 1536.5 916.415 1533.96 903.475C1531.94 893.157 1530.52 873.583 1542.99 856.282H1414.72C1399.25 878.578 1400.29 896.933 1418.96 931.218Z" fill="#359FBC"/>
<path d="M1723.71 939.987H1578.01L1576.99 939.522C1563.14 933.151 1553.57 916.175 1552.61 896.267C1551.56 874.626 1560.51 856.119 1576.56 846.759L1577.74 846.064H1723.71V856.249H1580.55C1568.57 863.878 1561.95 878.536 1562.78 895.772C1563.54 911.43 1570.38 924.632 1580.3 929.8H1723.71V939.987Z" fill="#359FBC"/>
<path d="M1589 871.906L1698.1 872.161" stroke="#CCBC97" stroke-width="1.35808" stroke-miterlimit="10"/>
<path d="M1578.13 886.919H1646.56" stroke="#CCBC97" stroke-width="1.35808" stroke-miterlimit="10"/>
<path d="M1654.18 887.173H1694.17" stroke="#CCBC97" stroke-width="1.35808" stroke-miterlimit="10"/>
<path d="M1672.91 903.206L1584.14 902.951" stroke="#CCBC97" stroke-width="1.35808" stroke-miterlimit="10"/>
<path d="M1595.93 913.894H1657.88" stroke="#CCBC97" stroke-width="1.35808" stroke-miterlimit="10"/>
<path d="M1666.89 913.894L1692.55 914.148" stroke="#CCBC97" stroke-width="1.35808" stroke-miterlimit="10"/>
<path d="M1480.95 862.14H1421.89C1420.28 862.14 1419.52 864.155 1420.74 865.204C1429.46 872.685 1440.25 877.534 1451.77 877.541C1463.29 877.549 1473.51 872.678 1482.11 865.197C1483.32 864.143 1482.56 862.14 1480.95 862.14Z" fill="white"/>
<path d="M1421.81 886.928C1423.17 887.804 1424.73 888.475 1426.35 888.421C1427.96 888.368 1429.62 887.454 1430.19 885.939C1430.92 884.004 1429.72 881.873 1428.27 880.403C1425.95 878.061 1422.86 876.495 1419.61 876.014C1410.83 874.714 1418.83 885.014 1421.81 886.928Z" fill="white"/>
<path d="M1490.75 930.933C1485.65 930.975 1480.32 930.963 1475.79 928.61C1474.5 927.939 1473.17 926.833 1473.22 925.377C1473.26 924.305 1474.09 923.389 1475.06 922.928C1476.03 922.47 1477.12 922.381 1478.19 922.309C1490.43 921.472 1502.72 921.612 1514.98 921.755C1518.77 921.799 1522.6 921.846 1526.29 922.732C1528.33 923.223 1530.65 924.38 1530.83 926.471C1530.98 928.156 1529.53 929.65 1527.91 930.147C1525.88 930.774 1523.09 930.575 1520.94 930.683C1517.57 930.851 1514.17 930.739 1510.8 930.767C1504.12 930.823 1497.44 930.879 1490.75 930.933Z" fill="white"/>
<path d="M1767.78 744.883H1634.5C1606.8 751.036 1603.94 814.145 1634.25 833.757H1762.58C1762.58 833.757 1753.73 780.836 1767.78 744.883Z" fill="white"/>
<path d="M1624.68 754.015C1633.69 796.779 1624.68 826.042 1624.68 826.042C1605.26 785.914 1624.68 754.015 1624.68 754.015Z" fill="#0A525E"/>
<path d="M1633.65 732.575H1463.52C1431.79 769.588 1441.67 825.039 1463.52 846.066H1640.35C1606.54 815.808 1613.4 769.008 1633.65 732.575Z" fill="#AD9C79"/>
<path d="M1578.57 750.779C1561.93 810.88 1582.96 830.528 1582.96 830.528H1558.03C1535.35 782.678 1556.84 750.779 1556.84 750.779H1578.57Z" fill="#ECE5C7"/>
<path d="M1607.65 837.931H1471.7L1471.41 837.291C1461.15 814.638 1456.38 798.026 1455.94 783.431C1455.53 769.696 1459.03 757.22 1467.31 742.981L1467.61 742.457H1601.06L1599.78 744.444C1586.49 765.052 1587.89 789.019 1589.91 801.471C1592.78 819.146 1599.48 832.264 1604.34 835.632L1607.65 837.931ZM1472.9 835.471H1600.86C1596.02 829.897 1590.44 817.585 1587.91 801.945C1585.88 789.477 1584.47 765.828 1596.94 744.92H1468.67C1453.19 771.86 1454.23 794.041 1472.9 835.471Z" fill="#ECE5C7"/>
<path d="M1777.66 846.066H1631.95L1630.94 845.503C1617.09 837.807 1607.52 817.29 1606.56 793.236C1605.51 767.087 1614.46 744.723 1630.5 733.414L1631.69 732.575H1777.66V744.882H1634.5C1622.52 754.1 1615.9 771.812 1616.73 792.641C1617.49 811.562 1624.32 827.514 1634.25 833.759H1777.66V846.066H1777.66Z" fill="#CCBC97"/>
<path d="M1642.94 763.798L1752.05 764.105" stroke="#CCBC97" stroke-width="1.49293" stroke-miterlimit="10"/>
<path d="M1632.08 781.942H1700.5" stroke="#CCBC97" stroke-width="1.49293" stroke-miterlimit="10"/>
<path d="M1708.13 782.247H1748.12" stroke="#CCBC97" stroke-width="1.49293" stroke-miterlimit="10"/>
<path d="M1726.85 801.621L1638.09 801.314" stroke="#CCBC97" stroke-width="1.49293" stroke-miterlimit="10"/>
<path d="M1649.88 814.536H1711.83" stroke="#CCBC97" stroke-width="1.49293" stroke-miterlimit="10"/>
<path d="M1720.84 814.536L1746.5 814.842" stroke="#CCBC97" stroke-width="1.49293" stroke-miterlimit="10"/>
<path d="M1534.9 752.001H1475.84C1474.22 752.001 1473.46 754.434 1474.69 755.703C1483.41 764.743 1494.2 770.602 1505.72 770.609C1517.24 770.616 1527.46 764.732 1536.06 755.694C1537.27 754.42 1536.5 752.001 1534.9 752.001Z" fill="white"/>
<path d="M1475.75 781.951C1477.11 783.01 1478.68 783.819 1480.29 783.756C1481.91 783.692 1483.57 782.587 1484.14 780.757C1484.87 778.42 1483.66 775.845 1482.21 774.068C1479.9 771.238 1476.81 769.347 1473.55 768.765C1464.78 767.195 1472.78 779.64 1475.75 781.951Z" fill="white"/>
<path d="M1544.7 835.126C1539.6 835.178 1534.27 835.163 1529.74 832.319C1528.45 831.508 1527.12 830.171 1527.17 828.414C1527.21 827.119 1528.04 826.009 1529 825.455C1529.97 824.901 1531.07 824.794 1532.14 824.705C1544.38 823.693 1556.67 823.864 1568.93 824.037C1572.72 824.09 1576.56 824.149 1580.24 825.217C1582.28 825.81 1584.6 827.206 1584.78 829.734C1584.93 831.772 1583.48 833.574 1581.86 834.175C1579.83 834.932 1577.05 834.691 1574.89 834.822C1571.52 835.026 1568.12 834.89 1564.75 834.923C1558.07 834.991 1551.38 835.058 1544.7 835.126Z" fill="white"/>
<path d="M1598.04 945.742H1731.92C1758.97 993.26 1731.92 1025.16 1731.92 1025.16H1594.39C1602.42 971.464 1598.04 945.742 1598.04 945.742Z" fill="white"/>
<path d="M1735.27 954.828C1718.98 996.033 1733.24 1018.39 1733.24 1018.39C1752.73 981.239 1735.27 954.828 1735.27 954.828Z" fill="#0A525E"/>
<path d="M1454.54 945.742C1462.86 982.166 1454.54 1025.16 1454.54 1025.16H1598.04C1610.22 992.914 1598.04 945.742 1598.04 945.742H1454.54Z" fill="#ECE5C7"/>
<path d="M1734.61 1030.71H1598.04V1023.81H1731.02C1734.97 1014.88 1751.27 974.072 1731.54 949.194H1598.04V942.291H1734.12L1735.02 943.338C1746.17 956.458 1749.75 975.524 1745.35 998.472C1742.11 1015.42 1735.75 1028.41 1735.48 1028.95L1734.61 1030.71Z" fill="#FECC09"/>
<path d="M1598.04 942.291H1451.42V949.194H1598.04V942.291Z" fill="#BE1F30"/>
<path d="M1598.04 1023.8H1451.42V1030.71H1598.04V1023.8Z" fill="#BE1F30"/>
<path d="M1611.95 963.441C1613.03 963.441 1614.11 963.441 1615.19 963.441L1721.75 964.135" stroke="#CCBC97" stroke-width="1.35808" stroke-miterlimit="10"/>
<path d="M1724.29 978.466H1682.22" stroke="#CCBC97" stroke-width="1.35808" stroke-miterlimit="10"/>
<path d="M1674.6 978.466H1625.13" stroke="#CCBC97" stroke-width="1.35808" stroke-miterlimit="10"/>
<path d="M1616.34 996.266H1688.25" stroke="#CCBC97" stroke-width="1.35808" stroke-miterlimit="10"/>
<path d="M1696.56 996.033H1705.57" stroke="#CCBC97" stroke-width="1.35808" stroke-miterlimit="10"/>
<path d="M1472.34 1007.82H1579.36" stroke="#CCBC97" stroke-width="1.35808" stroke-miterlimit="10"/>
<path d="M1582.37 991.643H1550.24" stroke="#CCBC97" stroke-width="1.35808" stroke-miterlimit="10"/>
<path d="M1538.91 991.643H1485.97" stroke="#CCBC97" stroke-width="1.35808" stroke-miterlimit="10"/>
<path d="M1473.72 978.466H1540.99" stroke="#CCBC97" stroke-width="1.35808" stroke-miterlimit="10"/>
<path d="M1551.62 978.002H1575.43" stroke="#CCBC97" stroke-width="1.35808" stroke-miterlimit="10"/>
<path d="M1577.75 964.136H1497.53" stroke="#CCBC97" stroke-width="1.35808" stroke-miterlimit="10"/>
<path d="M1624.9 1010.83H1662.81" stroke="#CCBC97" stroke-width="1.35808" stroke-miterlimit="10"/>
<path d="M1679.45 1009.67H1704.19" stroke="#CCBC97" stroke-width="1.35808" stroke-miterlimit="10"/>
<path d="M1602.49 846.517C1602.43 846.045 1601.03 834.897 1607.87 831.754L1608 831.698L1675.97 805.85L1677.52 809.904L1609.62 835.724C1606.43 837.269 1606.51 843.776 1606.79 845.949L1602.49 846.517Z" fill="#116A7B"/>
<path d="M1454.5 846.517C1454.44 846.045 1453.04 834.897 1459.88 831.753L1460.02 831.697L1527.98 805.849L1529.53 809.904L1461.63 835.724C1458.44 837.269 1458.52 843.775 1458.8 845.949L1454.5 846.517Z" fill="#116A7B"/>
<path d="M1561.42 846.232C1548.64 846.232 1538.6 839.553 1532.39 826.918C1527.83 817.628 1526.97 808.469 1526.93 808.084L1526.71 805.564H1596.17L1595.91 808.117C1595.87 808.502 1594.88 817.649 1590.25 826.93C1583.96 839.557 1573.99 846.232 1561.42 846.232ZM1531.9 810.192C1532.45 813.408 1533.76 819.239 1536.6 824.988C1542.05 836.014 1550.4 841.605 1561.42 841.605C1572.23 841.605 1580.52 836.01 1586.05 824.974C1588.93 819.236 1590.31 813.417 1590.9 810.192H1531.9Z" fill="#0A525E"/>
<path d="M1531.9 805.564H1523.1V810.192H1531.9V805.564Z" fill="#0A525E"/>
<path d="M1611.11 826.93C1606.49 817.651 1605.5 808.502 1605.46 808.116L1605.19 805.564H1674.65L1674.43 808.083C1674.4 808.469 1673.54 817.628 1668.97 826.918C1662.77 839.552 1652.73 846.232 1639.94 846.232C1627.37 846.232 1617.41 839.557 1611.11 826.93ZM1610.45 810.191C1611.05 813.417 1612.43 819.236 1615.31 824.973C1620.84 836.007 1629.13 841.604 1639.94 841.604C1650.96 841.604 1659.31 836.014 1664.76 824.987C1667.61 819.238 1668.91 813.407 1669.46 810.191H1610.45Z" fill="#0A525E"/>
<path d="M1669.46 810.191H1678.26V805.564H1669.46V810.191Z" fill="#0A525E"/>
<path d="M1531.9 810.191C1532.45 813.407 1533.75 819.238 1536.6 824.987C1542.05 836.014 1550.4 841.604 1561.42 841.604C1572.23 841.604 1580.51 836.009 1586.05 824.973C1588.93 819.236 1590.31 813.417 1590.9 810.191H1531.9Z" fill="white"/>
<path d="M1610.42 810.191C1610.97 813.407 1612.28 819.238 1615.12 824.987C1620.57 836.014 1628.92 841.604 1639.94 841.604C1650.75 841.604 1659.04 836.009 1664.57 824.973C1667.45 819.236 1668.83 813.417 1669.42 810.191H1610.42Z" fill="white"/>
<path d="M1607.28 816.598C1607.02 816.408 1600.71 811.886 1593.72 816.263L1591.27 812.342C1600.99 806.251 1609.69 812.62 1610.06 812.893L1607.28 816.598Z" fill="#0A525E"/>
<path d="M1412.96 863.12C1394.66 863.555 1380.04 878.517 1380.04 896.828V952.773H1445.89L1447.47 897.793C1448.02 878.486 1432.27 862.662 1412.96 863.12Z" fill="#116A7B"/>
<path d="M1383.45 932.424L1409.07 948.316" stroke="#0A525E" stroke-width="0.635219" stroke-miterlimit="10"/>
<path d="M1383.94 915.557L1425.78 947.183" stroke="#0A525E" stroke-width="0.635219" stroke-miterlimit="10"/>
<path d="M1386.21 896.258L1438.43 939.56" stroke="#0A525E" stroke-width="0.635219" stroke-miterlimit="10"/>
<path d="M1392.21 878.905L1440.22 919.937" stroke="#0A525E" stroke-width="0.635219" stroke-miterlimit="10"/>
<path d="M1407.45 869.337L1442.65 899.341" stroke="#0A525E" stroke-width="0.635219" stroke-miterlimit="10"/>
<path d="M1416.21 948.316L1441.51 915.882" stroke="#0A525E" stroke-width="0.635219" stroke-miterlimit="10"/>
<path d="M1439.4 888.151L1396.75 947.506" stroke="#0A525E" stroke-width="0.635219" stroke-miterlimit="10"/>
<path d="M1382.8 940.046L1425.13 873.553" stroke="#0A525E" stroke-width="0.635219" stroke-miterlimit="10"/>
<path d="M1412.97 867.553L1384.59 904.042" stroke="#0A525E" stroke-width="0.635219" stroke-miterlimit="10"/>
<path d="M1376.96 952.772V984.424C1376.96 991.484 1382.69 997.21 1389.75 997.21H1435.86C1442.92 997.21 1448.65 991.486 1448.65 984.424V952.772H1376.96Z" fill="#FECC09"/>
<path d="M1449.46 951.048L1375.07 950.532C1372.21 950.513 1372.21 954.958 1375.07 954.977L1449.46 955.493C1452.32 955.514 1452.32 951.067 1449.46 951.048Z" fill="#BE1F30"/>
<path d="M1437.3 962.249C1431.98 962.249 1431.97 970.506 1437.3 970.506C1442.61 970.506 1442.62 962.249 1437.3 962.249Z" fill="#0A525E"/>
<path d="M1423.83 962.249C1418.52 962.249 1418.51 970.506 1423.83 970.506C1429.15 970.506 1429.16 962.249 1423.83 962.249Z" fill="#0A525E"/>
<path d="M1403.6 910.888C1403.35 903.422 1399.44 894.625 1393.18 891.138C1390.6 889.703 1387.43 891.645 1387.48 894.594L1387.98 929.013C1388.02 932.013 1391.36 933.869 1393.88 932.24C1400.08 928.232 1403.85 918.332 1403.6 910.888Z" fill="white"/>
<path d="M1405.56 927.764C1402.6 925.562 1395.1 931.533 1398.17 935.009C1401.77 939.098 1406.8 934.38 1406.57 930.101C1406.53 929.224 1406.26 928.287 1405.56 927.764Z" fill="white"/>
<path d="M1429.14 881.602C1422.65 883.818 1428.71 895.615 1431.6 898.375C1432.7 899.42 1434.18 900.36 1435.63 899.948C1436.54 899.691 1437.24 898.932 1437.63 898.069C1438.01 897.207 1438.1 896.249 1438.13 895.304C1438.22 891.308 1435.53 879.424 1429.14 881.602Z" fill="white"/>
<path d="M1410.77 974.992C1410.77 982.136 1404.98 987.928 1397.84 987.928C1390.69 987.928 1384.9 982.136 1384.9 974.992C1384.9 967.847 1390.69 962.056 1397.84 962.056C1404.98 962.056 1410.77 967.847 1410.77 974.992Z" fill="#116A7B"/>
<path d="M1402.32 974.991C1402.32 977.466 1400.31 979.473 1397.84 979.473C1395.36 979.473 1393.35 977.466 1393.35 974.991C1393.35 972.516 1395.36 970.508 1397.84 970.508C1400.31 970.506 1402.32 972.514 1402.32 974.991Z" fill="#0A525E"/>
<path d="M1428.32 1006.93H1402.76C1399 1006.93 1395.93 1003.87 1395.93 1000.1V974.989H1399.74V1000.1C1399.74 1001.76 1401.1 1003.12 1402.76 1003.12H1428.32C1429.98 1003.12 1431.34 1001.76 1431.34 1000.1V997.207H1435.15V1000.1C1435.15 1003.87 1432.09 1006.93 1428.32 1006.93Z" fill="#0A525E"/>
<path d="M1378.6 1032H1449.33C1450.96 1032 1452.04 1030.29 1451.33 1028.81L1448.54 1023.01C1447.41 1020.67 1445.05 1019.19 1442.45 1019.19H1385.15C1382.45 1019.19 1380 1020.8 1378.94 1023.29L1376.55 1028.91C1375.93 1030.37 1377.01 1032 1378.6 1032Z" fill="#0A525E"/>
<path d="M1416.58 1005.89H1411.51V1022.27H1416.58V1005.89Z" fill="#0A525E"/>
<path d="M1814.68 858.264C1786 844.092 1752.08 844.758 1724.09 860.339C1717.68 863.905 1723.42 873.751 1729.84 870.178C1754.11 856.67 1783.98 855.777 1808.93 868.103C1811.69 869.465 1815.1 868.844 1816.72 866.058C1818.19 863.545 1817.45 859.633 1814.68 858.264Z" fill="#116A7B"/>
<path d="M1852.5 965.749L1846.69 964.592C1853.83 928.727 1848.86 899.107 1832.31 878.938C1818.35 861.929 1796.84 852.562 1771.73 852.562C1746.63 852.562 1725.11 861.929 1711.16 878.938C1694.61 899.107 1689.63 928.725 1696.78 964.592L1690.96 965.749C1683.46 928.084 1688.86 896.765 1706.58 875.18C1721.68 856.773 1744.82 846.635 1771.73 846.635C1798.65 846.635 1821.79 856.773 1836.89 875.18C1854.6 896.765 1860 928.084 1852.5 965.749Z" fill="#FECC09"/>
<path d="M1816.27 916.683C1808.37 915.783 1801.06 919.294 1800.16 925.361L1786.58 1017.24C1785.74 1022.9 1791.61 1029.31 1799.48 1030.2C1807.38 1031.1 1814.69 1027.59 1815.59 1021.53L1829.17 929.649C1830.01 923.989 1824.14 917.578 1816.27 916.683Z" fill="#CCBC97"/>
<path d="M1849.03 957.666C1845.61 957.159 1842.29 959.622 1841.78 963.046L1837.33 993.211C1836.82 996.623 1839.29 999.953 1842.71 1000.46C1846.13 1000.96 1849.45 998.502 1849.95 995.078L1854.41 964.913C1854.92 961.501 1852.44 958.171 1849.03 957.666Z" fill="#FECC09"/>
<path d="M1829.92 924.577L1815.15 1024.52C1814.78 1027 1817.55 1028.74 1819.61 1027.31C1827.15 1022.07 1840.55 1008.67 1845.1 977.884C1849.65 947.105 1840.7 930.397 1835 923.196C1833.45 921.233 1830.29 922.098 1829.92 924.577Z" fill="#116A7B"/>
<path d="M1808.07 916.41L1791.53 1028.33" stroke="#0A525E" stroke-width="1.36766" stroke-miterlimit="10" stroke-linecap="round"/>
<path d="M1813.49 915.565L1796.47 1030.71" stroke="#0A525E" stroke-width="1.36766" stroke-miterlimit="10" stroke-linecap="round"/>
<path d="M1821.74 936.933C1817.05 941.913 1813.88 947.908 1813 953.921C1812.11 959.946 1813.36 966.228 1816.4 972.199C1817.09 973.555 1819.83 973.529 1820.03 972.164L1825.22 938.012C1825.42 936.638 1822.79 935.82 1821.74 936.933Z" fill="white"/>
<path d="M1814.87 971.157C1814.51 969.986 1814.08 968.717 1813.04 968.069C1811.27 966.964 1809.29 968.415 1808.81 970.212C1808.35 971.921 1809.43 974.199 1810.17 975.704C1810.59 976.553 1811.1 977.394 1811.87 977.941C1812.64 978.488 1813.72 978.68 1814.54 978.193C1815.41 977.665 1815.72 976.534 1815.73 975.513C1815.74 974.026 1815.3 972.577 1814.87 971.157Z" fill="white"/>
<path d="M1831.71 1000.24C1830.97 1000 1830.15 1000.22 1829.5 1000.65C1828.86 1001.07 1828.35 1001.67 1827.86 1002.27C1825.12 1005.57 1822.29 1009.05 1821.44 1013.25C1821.3 1013.93 1821.22 1014.67 1821.54 1015.29C1822.05 1016.27 1823.42 1016.55 1824.46 1016.16C1825.5 1015.77 1826.28 1014.89 1826.96 1014.02C1828.29 1012.32 1829.46 1010.49 1830.45 1008.58C1831.32 1006.89 1832.95 1005.11 1833.23 1003.21C1833.41 1002.01 1832.86 1000.62 1831.71 1000.24Z" fill="white"/>
<path d="M1726.9 916.683C1734.8 915.783 1742.11 919.294 1743.01 925.361L1756.59 1017.24C1757.43 1022.9 1751.56 1029.31 1743.68 1030.2C1735.78 1031.1 1728.47 1027.59 1727.57 1021.53L1713.99 929.649C1713.15 923.989 1719.03 917.578 1726.9 916.683Z" fill="#CCBC97"/>
<path d="M1694.13 957.666C1697.56 957.159 1700.87 959.622 1701.38 963.046L1705.84 993.211C1706.34 996.623 1703.87 999.953 1700.46 1000.46C1697.03 1000.96 1693.72 998.502 1693.21 995.078L1688.75 964.913C1688.25 961.501 1690.72 958.171 1694.13 957.666Z" fill="#FECC09"/>
<path d="M1713.24 924.577L1728.02 1024.52C1728.39 1027 1725.61 1028.74 1723.55 1027.31C1716.01 1022.07 1702.61 1008.67 1698.06 977.884C1693.51 947.105 1702.46 930.397 1708.16 923.196C1709.72 921.233 1712.88 922.098 1713.24 924.577Z" fill="#116A7B"/>
<path d="M1735.1 916.41L1751.64 1028.33" stroke="#0A525E" stroke-width="1.36766" stroke-miterlimit="10" stroke-linecap="round"/>
<path d="M1729.67 915.565L1746.7 1030.71" stroke="#0A525E" stroke-width="1.36766" stroke-miterlimit="10" stroke-linecap="round"/>
<path d="M1721.42 936.933C1726.12 941.913 1729.29 947.908 1730.17 953.921C1731.06 959.946 1729.81 966.228 1726.76 972.199C1726.07 973.555 1723.34 973.529 1723.13 972.164L1717.95 938.012C1717.74 936.638 1720.37 935.82 1721.42 936.933Z" fill="white"/>
<path d="M1728.3 971.157C1728.66 969.986 1729.09 968.717 1730.13 968.069C1731.9 966.964 1733.88 968.415 1734.36 970.212C1734.82 971.921 1733.73 974.199 1733 975.704C1732.58 976.553 1732.07 977.394 1731.3 977.941C1730.53 978.488 1729.44 978.68 1728.63 978.193C1727.75 977.665 1727.45 976.534 1727.44 975.513C1727.42 974.026 1727.86 972.577 1728.3 971.157Z" fill="white"/>
<path d="M1711.46 1000.24C1712.19 1000 1713.01 1000.22 1713.66 1000.65C1714.31 1001.07 1714.81 1001.67 1715.31 1002.27C1718.04 1005.57 1720.88 1009.05 1721.73 1013.25C1721.87 1013.93 1721.94 1014.67 1721.63 1015.29C1721.12 1016.27 1719.75 1016.55 1718.7 1016.16C1717.66 1015.77 1716.89 1014.89 1716.2 1014.02C1714.88 1012.32 1713.7 1010.49 1712.71 1008.58C1711.84 1006.89 1710.21 1005.11 1709.94 1003.21C1709.76 1002.01 1710.31 1000.62 1711.46 1000.24Z" fill="white"/>
<path d="M1756.24 487.26H1734.86V465.875C1734.86 459.878 1729.58 454.134 1723.39 454.412C1717.18 454.69 1711.93 459.448 1711.93 465.875V487.26H1690.54C1684.55 487.26 1678.8 492.532 1679.08 498.723C1679.36 504.935 1684.12 510.186 1690.54 510.186H1711.93V531.571C1711.93 537.568 1717.2 543.312 1723.39 543.034C1729.6 542.756 1734.86 537.998 1734.86 531.571V510.186H1756.24C1762.24 510.186 1767.98 504.914 1767.71 498.723C1767.43 492.511 1762.67 487.26 1756.24 487.26Z" stroke="#C2DEDC" stroke-width="1.15662" stroke-miterlimit="10"/>
<path d="M1532.77 656.357H1522.46V646.041C1522.46 643.148 1519.91 640.376 1516.92 640.509C1513.93 640.643 1511.39 642.94 1511.39 646.041V656.357H1501.08C1498.18 656.357 1495.41 658.902 1495.54 661.889C1495.68 664.885 1497.97 667.421 1501.08 667.421H1511.39V677.737C1511.39 680.63 1513.94 683.402 1516.92 683.269C1519.92 683.136 1522.46 680.838 1522.46 677.737V667.421H1532.77C1535.66 667.421 1538.44 664.876 1538.3 661.889C1538.17 658.893 1535.87 656.357 1532.77 656.357Z" fill="#C2DEDC"/>
<path d="M1860.09 446.054C1855.02 446.054 1852.43 443.312 1850.14 440.891C1847.97 438.596 1846.1 436.616 1842.26 436.616C1838.41 436.616 1836.54 438.598 1834.37 440.891C1832.08 443.31 1829.49 446.054 1824.42 446.054C1819.36 446.054 1816.77 443.31 1814.48 440.891C1812.31 438.596 1810.44 436.616 1806.59 436.616C1802.75 436.616 1800.88 438.598 1798.71 440.891C1796.42 443.31 1793.83 446.054 1788.77 446.054C1783.7 446.054 1781.11 443.31 1778.82 440.891C1776.66 438.596 1774.78 436.616 1770.94 436.616C1770.15 436.616 1769.52 435.983 1769.52 435.2C1769.52 434.417 1770.15 433.784 1770.94 433.784C1776 433.784 1778.6 436.528 1780.88 438.947C1783.05 441.242 1784.92 443.221 1788.77 443.221C1792.61 443.221 1794.48 441.239 1796.65 438.947C1798.94 436.528 1801.53 433.784 1806.59 433.784C1811.66 433.784 1814.25 436.528 1816.54 438.947C1818.7 441.242 1820.58 443.221 1824.42 443.221C1828.27 443.221 1830.14 441.239 1832.31 438.947C1834.6 436.528 1837.19 433.784 1842.26 433.784C1847.33 433.784 1849.92 436.525 1852.2 438.947C1854.37 441.242 1856.24 443.221 1860.09 443.221C1863.94 443.221 1865.81 441.239 1867.98 438.947C1870.26 436.528 1872.86 433.784 1877.92 433.784C1878.71 433.784 1879.34 434.417 1879.34 435.2C1879.34 435.983 1878.71 436.616 1877.92 436.616C1874.08 436.616 1872.2 438.598 1870.04 440.891C1867.75 443.312 1865.16 446.054 1860.09 446.054Z" fill="#359FBC"/>
<path d="M1860.09 460.957C1855.02 460.957 1852.43 458.216 1850.14 455.795C1847.97 453.5 1846.1 451.52 1842.26 451.52C1838.41 451.52 1836.54 453.502 1834.37 455.795C1832.08 458.214 1829.49 460.957 1824.42 460.957C1819.36 460.957 1816.77 458.214 1814.48 455.795C1812.31 453.5 1810.44 451.52 1806.59 451.52C1802.75 451.52 1800.88 453.502 1798.71 455.795C1796.42 458.214 1793.83 460.957 1788.77 460.957C1783.7 460.957 1781.11 458.214 1778.82 455.795C1776.66 453.5 1774.78 451.52 1770.94 451.52C1770.15 451.52 1769.52 450.887 1769.52 450.104C1769.52 449.321 1770.15 448.688 1770.94 448.688C1776 448.688 1778.6 451.431 1780.88 453.85C1783.05 456.145 1784.92 458.125 1788.77 458.125C1792.61 458.125 1794.48 456.143 1796.65 453.85C1798.94 451.431 1801.53 448.688 1806.59 448.688C1811.66 448.688 1814.25 451.431 1816.54 453.85C1818.7 456.145 1820.58 458.125 1824.42 458.125C1828.27 458.125 1830.14 456.143 1832.31 453.85C1834.6 451.431 1837.19 448.688 1842.26 448.688C1847.33 448.688 1849.92 451.429 1852.2 453.85C1854.37 456.145 1856.24 458.125 1860.09 458.125C1863.94 458.125 1865.81 456.143 1867.98 453.85C1870.26 451.431 1872.86 448.688 1877.92 448.688C1878.71 448.688 1879.34 449.321 1879.34 450.104C1879.34 450.887 1878.71 451.52 1877.92 451.52C1874.08 451.52 1872.2 453.502 1870.04 455.795C1867.75 458.214 1865.16 460.957 1860.09 460.957Z" fill="#359FBC"/>
</g>
</g>
<defs>
<clipPath id="clip0_15_2549">
<rect width="1920" height="1080" fill="white"/>
</clipPath>
</defs>
</svg>
